<?xml version="1.0" encoding="UTF-8"?>
<svg id="Layer_1" data-name="Layer 1" xmlns="http://www.w3.org/2000/svg" viewBox="0 0 15493.87 3051.12">
  <defs>
    <style>
      .cls-1, .cls-2, .cls-3 {
        stroke-width: 0px;
      }

      .cls-2 {
        fill: #ec1c24;
      }

      .cls-3 {
        fill: #989898;
      }
    </style>
  </defs>
  <g>
    <path class="cls-2" d="m5408.24,1372.06c-163.41,0-302.94,57.81-418.57,173.44-115.63,115.63-173.44,255.18-173.44,418.57v1036.01h-444v-1036.01c0-286.75,100.97-531.08,302.94-733.07,201.97-201.95,446.32-302.94,733.07-302.94v444Z"/>
    <path class="cls-2" d="m6131.18,928.06v2072.01h-444V928.06h444Z"/>
    <path class="cls-2" d="m6996.24,928.06l515.11-4.42v444l-448.04,4.42c-157.25,1.55-233.56,32.38-228.94,92.5,0,89.42,164.19,174.99,492.57,256.69,240.5,60.13,408.16,134.93,502.97,224.31,94.81,89.42,142.22,218.18,142.22,386.19,0,220.49-63.97,386.99-191.94,499.5-127.97,112.55-315.29,168.81-561.94,168.81h-814.01l-2.31-444h804.76c194.25-7.7,295.22-58.58,302.94-152.63,0-80.14-63.22-136.44-189.63-168.81-427.03-106.38-686.44-212.36-778.16-317.97-91.72-105.57-137.59-233.17-137.59-382.72,0-407,197.35-608.96,592-605.88Z"/>
    <g>
      <path class="cls-1" d="m8595.36,1371.37v592c0,163.42,57.81,302.94,173.44,418.57,115.63,115.63,255.16,173.44,418.57,173.44v444c-286.75,0-531.1-100.95-733.07-302.94-201.97-201.95-302.94-446.32-302.94-733.07V335.37h444v592h592v444h-592Z"/>
      <path class="cls-3" d="m10253.44,1384.38c-101.75,24.65-191.94,76.31-270.56,154.94-115.63,115.63-173.44,255.16-173.44,418.57s57.81,302.94,173.44,418.57c115.63,115.63,255.18,173.44,418.57,173.44s302.94-57.81,418.57-173.44c115.63-115.63,173.44-255.16,173.44-418.57s-57.01-302.16-171.13-416.25l314.5-314.5c200.42,200.41,300.63,444,300.63,730.76s-100.95,531.1-302.94,733.07c-201.95,201.97-446.32,302.94-733.07,302.94s-531.08-100.97-733.07-302.94c-201.95-201.97-302.94-446.32-302.94-733.07s100.99-531.1,302.94-733.07c201.99-201.97,446.32-302.94,733.07-302.94,104.87,0,203.5,13.09,296,39.31v1207.51h-444v-784.32Z"/>
      <path class="cls-1" d="m13391.96,2687.33c-201.63,201.63-445.4,302.32-731.57,302.32s-530.06-100.69-731.57-302.32c-201.63-201.51-302.32-445.4-302.32-731.57s100.69-529.94,302.32-731.57c201.51-201.51,445.4-302.32,731.57-302.32s529.94,100.81,731.57,302.32l2.31,2.31-313.86,313.86-2.31-2.31c-115.39-115.39-254.71-173.08-417.71-173.08s-302.32,57.69-417.71,173.08c-115.39,115.39-173.08,254.71-173.08,417.71s57.69,302.32,173.08,417.71c115.39,115.39,254.58,173.08,417.71,173.08s302.32-57.69,417.71-173.08l2.31-2.31,313.86,313.86-2.31,2.31Z"/>
      <path class="cls-1" d="m15422.62,1858.91c-21.9-242.08-121.27-451.6-298.25-628.6-46.66-46.66-96.39-88.06-152.11-124.49-21.44-14.82-44.43-25.99-66.66-38.95-153.03-89.2-323.55-136.76-514.03-136.76-8.6,0-16.81.95-25.34,1.13-1-.08-2.13-.1-3.13-.19-168.56,4.5-267.81,40.15-267.81,40.15V335.36h-444v2664.02h444v-1544.52c82.33-48.76,173.78-75.49,274.88-78.78,123.7,10.23,256.71,37.89,365.19,109.27,25.71,18.85,51.07,38.51,74.77,62.21,13,13,24.12,26.8,35.64,40.42,7.56,9,15.59,17.8,22.51,27.06,11.63,15.47,22.07,31.45,31.91,47.69,7.18,11.88,13.45,24.1,19.68,36.37,13.46,26.53,24.6,54.06,33.6,82.5,3.83,12.09,7.85,24.09,10.88,36.52,11.27,46.37,18.94,94.23,18.94,145.26v1036h444v-1028.88c0-1.5.28-2.87.28-4.38,0-36.44-1.71-72.15-4.96-107.21Z"/>
    </g>
    <path class="cls-2" d="m2326.52,2071.85c21.9,242.08,121.27,451.6,298.25,628.6,46.66,46.66,96.39,88.06,152.11,124.49,21.44,14.82,44.43,25.99,66.66,38.95,153.03,89.2,323.55,136.76,514.03,136.76,8.6,0,296.28,0,296.28,0h444v-310.84s0-1450.35,0-1450.35v-308.08s-444,0-444,0v37.8s0,484.2,0,484.2v1022.52c-82.33,48.76-173.78,75.49-274.88,78.78-123.7-10.23-256.71-37.89-365.19-109.27-25.71-18.85-51.07-38.51-74.77-62.21-13-13-24.12-26.8-35.64-40.42-7.56-9-15.59-17.8-22.51-27.06-11.63-15.47-22.07-31.45-31.91-47.69-7.18-11.88-13.45-24.1-19.68-36.37-13.46-26.53-24.6-54.06-33.6-82.5-3.83-12.09-7.85-24.09-10.88-36.52-11.27-46.37-18.94-94.23-18.94-145.26v-298.75s0-300.34,0-300.34v-256s0-180.91,0-180.91h-444s0,1028.88,0,1028.88c0,1.5-.28,2.87-.28,4.38,0,36.44,1.71,72.15,4.96,107.21Z"/>
  </g>
  <g>
    <path class="cls-2" d="m148.26,206.19c54.64-54.64,120.57-81.96,197.81-81.96,77.24,0,143.16,27.32,197.81,81.96,54.64,54.64,81.96,120.58,81.96,197.81,0,77.26-27.32,143.16-81.96,197.81-54.64,54.64-120.57,81.96-197.81,81.96-77.24,0-143.16-27.32-197.81-81.96-54.64-54.64-81.96-120.55-81.96-197.81,0-77.22,27.32-143.16,81.96-197.81Z"/>
    <path class="cls-2" d="m2229.82,50.47c-23.05,91.63-52.8,161.68-89.5,210.6-15.88,20.97-38.37,42.08-63.92,63.25-12.71-43.58-35.05-83.16-69.6-117.71-54.64-54.65-120.56-81.96-197.8-81.96-42.65,0-81.5,9.17-117.25,25.83-29,13.51-56.09,31.66-80.56,56.13-54.65,54.65-81.96,120.59-81.96,197.81s27.32,143.16,81.96,197.8c54.64,54.65,120.56,81.96,197.8,81.96,36.35,0,69.98-6.58,101.32-18.68,3.99-1.69,7.56-3,11.76-4.89,39.65-17.9,87.83-45.03,140.34-86.55,11.98-9,23.03-18.29,33.61-27.7,2.22-1.96,4.3-3.37,6.53-5.38l-.05-.25c15.65-14.4,30.33-29.14,43.11-44.58,41.34-50.43,75.99-106.29,103.39-167.76,27.33-61.67,44.57-146.2,51.84-253.63l-71.04-24.29Z"/>
    <path class="cls-2" d="m362.13,2757.19c178.57,161.45,415.84,243.46,705.36,243.46s520.39-82.01,702.7-243.59c182.39-161.45,274.91-370.41,274.91-621.08V959.5h-444.42v1107.6c0,164.92-45.97,296.89-136.7,392.29-90.87,95.53-226.62,143.94-382.75,143.94-350.45,0-540.09-180.37-540.09-536.23v-171.19H92.69v225.27c0,260.58,90.65,474.56,269.44,636.01Z"/>
  </g>
</svg>